<svg width="915" height="328" viewBox="0 0 915 328" fill="none" xmlns="http://www.w3.org/2000/svg">
<g clip-path="url(#clip0_5022_5890)">
<path d="M676.947 109.963L667.408 115.478L657.869 109.963V98.933L667.408 93.418L676.947 98.933V109.963Z" fill="#1E879E"/>
<path d="M170.935 240.755L98 198.563V114.193L170.935 72L243.871 114.193V198.578L170.935 240.771V240.755ZM112.074 190.431L170.935 224.477L229.796 190.431V122.324L170.935 88.2786L112.074 122.324V190.431Z" fill="#1E879E"/>
<path d="M148.667 125.583H156.142V111.717L175.283 106.265V125.598H195.909L193.251 141.83H175.283V170.157C175.283 175.28 175.799 178.931 176.831 181.156C177.863 183.365 179.802 184.477 182.648 184.477C184.618 184.477 186.307 184.274 187.73 183.882C189.153 183.49 190.748 182.895 192.516 182.111L195.909 196.87C193.251 198.155 190.17 199.236 186.636 200.113C183.102 201.006 179.52 201.445 175.877 201.445C169.106 201.445 164.117 199.69 160.927 196.212C157.737 192.718 156.142 186.984 156.142 179.025V141.846H145.977L148.667 125.614V125.583Z" fill="#1E879E"/>
<path d="M268.625 125.912H276.1V112.046L295.241 106.594V125.928H315.867L313.209 142.159H295.241V170.486C295.241 175.609 295.757 179.26 296.789 181.485C297.821 183.694 299.76 184.806 302.606 184.806C304.577 184.806 306.266 184.603 307.689 184.211C309.112 183.819 310.707 183.224 312.474 182.44L315.867 197.199C313.209 198.484 310.128 199.565 306.594 200.443C303.06 201.336 299.479 201.774 295.835 201.774C289.064 201.774 284.076 200.019 280.885 196.541C277.695 193.047 276.1 187.313 276.1 179.354V142.175H265.936L268.625 125.943V125.912Z" fill="#111111"/>
<path d="M316.947 162.59C316.947 150.15 319.981 140.577 326.048 133.856C332.116 127.15 340.623 123.781 351.569 123.781C357.433 123.781 362.516 124.721 366.832 126.57C371.132 128.435 374.698 131.051 377.544 134.435C380.374 137.819 382.501 141.909 383.924 146.703C385.347 151.497 386.051 156.793 386.051 162.574C386.051 175.014 383.048 184.603 377.028 191.308C371.007 198.014 362.531 201.383 351.585 201.383C345.721 201.383 340.638 200.443 336.322 198.594C332.022 196.729 328.425 194.113 325.548 190.729C322.655 187.345 320.512 183.255 319.089 178.461C317.666 173.667 316.962 168.371 316.962 162.59H316.947ZM336.588 162.59C336.588 165.817 336.885 168.81 337.464 171.552C338.058 174.294 338.934 176.691 340.107 178.759C341.279 180.811 342.828 182.409 344.72 183.537C346.628 184.665 348.895 185.229 351.538 185.229C356.526 185.229 360.233 183.412 362.688 179.793C365.127 176.174 366.347 170.439 366.347 162.606C366.347 155.853 365.221 150.385 362.969 146.217C360.717 142.05 356.902 139.966 351.522 139.966C346.831 139.966 343.156 141.736 340.529 145.261C337.886 148.787 336.572 154.568 336.572 162.606L336.588 162.59Z" fill="#111111"/>
<path d="M437.218 199.33V159.362C437.218 152.61 436.577 147.8 435.31 144.964C434.044 142.128 431.401 140.702 427.382 140.702C424.051 140.702 421.361 141.611 419.313 143.428C417.264 145.246 415.7 147.565 414.621 150.416V199.362H395.559V125.881H410.368L412.573 135.579C412.573 135.579 418.265 129.704 421.736 127.353C425.208 125.003 429.681 123.828 435.154 123.828C439.845 123.828 443.692 124.784 446.663 126.695C449.65 128.607 451.965 131.819 453.638 136.315C455.89 132.492 458.767 129.453 462.286 127.197C465.804 124.941 470.058 123.812 475.046 123.812C479.159 123.812 482.646 124.298 485.539 125.285C488.417 126.272 490.762 127.949 492.576 130.362C494.39 132.759 495.735 135.971 496.611 139.981C497.487 143.992 497.924 149.1 497.924 155.273V199.362H478.862V158.062C478.862 152.28 478.252 147.941 477.032 145.058C475.812 142.175 473.091 140.718 468.885 140.718C465.46 140.718 462.755 141.658 460.738 143.507C458.736 145.371 457.235 147.909 456.265 151.152V199.362H437.202L437.218 199.33Z" fill="#111111"/>
<path d="M509.966 125.849H523.899L526.104 134.67C526.104 134.67 532.234 128.199 535.706 126.445C539.177 124.674 543.4 123.797 548.388 123.797C557.583 123.797 564.48 126.711 569.077 132.539C573.675 138.368 575.974 147.753 575.974 160.678C575.974 166.945 575.239 172.601 573.769 177.646C572.299 182.691 570.125 186.984 567.248 190.509C564.355 194.035 560.836 196.729 556.692 198.594C552.532 200.458 547.763 201.383 542.383 201.383C539.35 201.383 536.863 201.163 534.908 200.725C532.954 200.286 530.999 199.565 529.044 198.594V229.459H509.981V125.849H509.966ZM542.68 139.966C538.959 139.966 536.05 140.906 533.954 142.755C531.843 144.619 530.217 147.408 529.044 151.137V181.704C530.405 182.785 531.906 183.647 533.517 184.274C535.127 184.916 537.254 185.229 539.897 185.229C545.37 185.229 549.483 183.302 552.219 179.432C554.956 175.563 556.332 169.17 556.332 160.255C556.332 153.785 555.253 148.787 553.111 145.261C550.953 141.736 547.481 139.966 542.696 139.966H542.68Z" fill="#111111"/>
<path d="M609.72 168.92H604.591V199.346H585.528V96.457H604.591V157.153L608.985 155.101L625.702 125.849H646.673L629.064 153.769L621.589 159.347L629.659 165.081L649.456 199.33H627.594L609.705 168.904L609.72 168.92Z" fill="#111111"/>
<path d="M657.869 120.758L667.408 126.304L676.947 120.758V199.331H657.869V120.758Z" fill="#111111"/>
<path d="M734.542 199.33V157.592C734.542 151.622 733.682 147.298 731.977 144.666C730.273 142.018 727.364 140.702 723.251 140.702C719.639 140.702 716.574 141.752 714.088 143.867C711.601 145.982 709.803 148.599 708.739 151.732V199.346H689.677V125.865H704.783L706.988 135.563C706.988 135.563 712.805 129.688 716.527 127.338C720.249 124.988 725.034 123.812 730.898 123.812C734.511 123.812 737.748 124.298 740.578 125.285C743.409 126.272 745.801 127.886 747.772 130.142C749.726 132.398 751.196 135.454 752.166 139.323C753.136 143.193 753.636 147.972 753.636 153.659V199.362H734.573L734.542 199.33Z" fill="#111111"/>
<path d="M796.296 179.056C796.296 177.098 795.467 175.531 793.81 174.356C792.152 173.181 790.088 172.1 787.648 171.129C785.209 170.157 782.519 169.139 779.579 168.12C776.639 167.102 773.949 165.676 771.51 163.859C769.07 162.041 767.006 159.738 765.349 156.949C763.691 154.161 762.862 150.557 762.862 146.154C762.862 138.9 765.005 133.37 769.321 129.547C773.621 125.724 779.829 123.812 787.945 123.812C793.513 123.812 798.548 124.408 803.052 125.583C807.555 126.758 811.074 128.074 813.607 129.547L809.354 143.366C807.102 142.488 804.271 141.548 800.847 140.577C797.422 139.605 793.95 139.104 790.432 139.104C784.755 139.104 781.925 141.313 781.925 145.716C781.925 147.486 782.754 148.896 784.411 149.977C786.069 151.058 788.133 152.061 790.573 152.986C793.012 153.926 795.702 154.928 798.642 155.994C801.582 157.075 804.271 158.469 806.711 160.177C809.15 161.885 811.215 164.125 812.872 166.867C814.53 169.609 815.359 173.134 815.359 177.443C815.359 184.885 812.982 190.744 808.243 195.006C803.505 199.268 796.39 201.398 786.898 201.398C781.706 201.398 776.843 200.74 772.308 199.409C767.757 198.092 764.066 196.541 761.236 194.787L766.521 180.529C768.773 181.798 771.745 183.052 775.466 184.274C779.188 185.496 782.988 186.107 786.913 186.107C789.744 186.107 792.027 185.574 793.731 184.493C795.436 183.412 796.296 181.61 796.296 179.056Z" fill="#111111"/>
<path d="M562.071 244.657C562.071 243.685 561.665 242.902 560.852 242.307C560.038 241.727 559.038 241.179 557.849 240.693C556.661 240.207 555.347 239.706 553.908 239.189C552.47 238.672 551.172 237.967 549.967 237.058C548.779 236.149 547.778 235.006 546.965 233.611C546.152 232.217 545.745 230.431 545.745 228.237C545.745 224.618 546.793 221.861 548.888 219.965C550.984 218.069 554.018 217.113 557.974 217.113C560.695 217.113 563.15 217.411 565.34 217.991C567.529 218.57 569.249 219.228 570.484 219.965L568.405 226.843C567.31 226.404 565.918 225.934 564.261 225.448C562.587 224.963 560.898 224.712 559.178 224.712C556.41 224.712 555.034 225.809 555.034 228.002C555.034 228.88 555.441 229.585 556.254 230.117C557.067 230.65 558.068 231.151 559.256 231.621C560.445 232.091 561.759 232.593 563.197 233.126C564.62 233.658 565.934 234.363 567.138 235.209C568.326 236.071 569.327 237.168 570.14 238.547C570.954 239.91 571.36 241.664 571.36 243.811C571.36 247.524 570.203 250.438 567.889 252.553C565.574 254.684 562.103 255.734 557.474 255.734C554.94 255.734 552.579 255.405 550.358 254.747C548.138 254.089 546.34 253.321 544.963 252.444L547.544 245.346C548.638 245.989 550.093 246.6 551.907 247.211C553.721 247.822 555.582 248.119 557.489 248.119C558.865 248.119 559.976 247.853 560.82 247.32C561.649 246.788 562.071 245.879 562.071 244.61V244.657Z" fill="#1E879E"/>
<path d="M576.005 236.447C576.005 230.243 577.49 225.48 580.446 222.127C583.402 218.79 587.546 217.113 592.894 217.113C595.756 217.113 598.226 217.583 600.337 218.508C602.433 219.432 604.169 220.748 605.561 222.425C606.937 224.101 607.984 226.153 608.672 228.535C609.361 230.932 609.705 233.564 609.705 236.447C609.705 242.651 608.235 247.414 605.31 250.767C602.37 254.104 598.242 255.781 592.894 255.781C590.032 255.781 587.546 255.311 585.45 254.386C583.355 253.462 581.603 252.146 580.196 250.47C578.788 248.793 577.741 246.741 577.053 244.359C576.365 241.962 576.02 239.33 576.02 236.447H576.005ZM585.591 236.447C585.591 238.061 585.732 239.549 586.013 240.912C586.295 242.275 586.733 243.482 587.295 244.5C587.874 245.519 588.625 246.318 589.547 246.882C590.47 247.446 591.58 247.728 592.878 247.728C595.318 247.728 597.116 246.819 598.32 245.017C599.509 243.215 600.103 240.364 600.103 236.447C600.103 233.079 599.556 230.352 598.461 228.284C597.366 226.216 595.505 225.166 592.878 225.166C590.595 225.166 588.797 226.044 587.514 227.799C586.232 229.553 585.575 232.436 585.575 236.431L585.591 236.447Z" fill="#1E879E"/>
<path d="M623.653 242.463C623.653 244.171 623.872 245.424 624.294 246.192C624.717 246.976 625.42 247.367 626.374 247.367C626.953 247.367 627.5 247.32 628.047 247.226C628.595 247.132 629.283 246.913 630.08 246.568L631.081 254.042C630.315 254.433 629.158 254.825 627.578 255.217C625.999 255.608 624.388 255.796 622.715 255.796C619.994 255.796 617.93 255.154 616.491 253.854C615.052 252.553 614.349 250.422 614.349 247.446V203.514H623.653V242.463Z" fill="#1E879E"/>
<path d="M645.031 218.148V238.938C645.031 241.915 645.375 244.062 646.063 245.378C646.751 246.694 648.096 247.352 650.097 247.352C651.864 247.352 653.334 246.819 654.492 245.738C655.664 244.673 656.525 243.341 657.103 241.79V218.148H666.408V243.623C666.408 245.628 666.502 247.587 666.689 249.514C666.877 251.441 667.158 253.18 667.549 254.747H660.543L658.901 249.326H658.62C657.525 251.175 655.993 252.726 654.038 253.932C652.083 255.154 649.769 255.765 647.095 255.765C645.281 255.765 643.654 255.515 642.231 255.029C640.808 254.543 639.604 253.729 638.65 252.616C637.696 251.488 636.961 249.984 636.461 248.073C635.961 246.177 635.71 243.78 635.71 240.897V218.132H645.015L645.031 218.148Z" fill="#1E879E"/>
<path d="M715.448 236.447C715.448 230.243 716.934 225.48 719.889 222.127C722.845 218.79 726.989 217.113 732.337 217.113C735.199 217.113 737.67 217.583 739.781 218.508C741.876 219.432 743.612 220.748 745.004 222.425C746.38 224.101 747.428 226.153 748.116 228.535C748.804 230.932 749.148 233.564 749.148 236.447C749.148 242.651 747.678 247.414 744.754 250.767C741.814 254.104 737.685 255.781 732.337 255.781C729.475 255.781 726.989 255.311 724.894 254.386C722.798 253.462 721.047 252.146 719.639 250.47C718.232 248.793 717.184 246.741 716.496 244.359C715.808 241.962 715.464 239.33 715.464 236.447H715.448ZM725.034 236.447C725.034 238.061 725.175 239.549 725.457 240.912C725.738 242.275 726.176 243.482 726.739 244.5C727.317 245.519 728.068 246.318 728.991 246.882C729.913 247.446 731.024 247.728 732.322 247.728C734.761 247.728 736.559 246.819 737.764 245.017C738.952 243.215 739.546 240.364 739.546 236.447C739.546 233.079 738.999 230.352 737.904 228.284C736.81 226.216 734.949 225.166 732.322 225.166C730.038 225.166 728.24 226.044 726.958 227.799C725.675 229.553 725.034 232.436 725.034 236.431V236.447Z" fill="#1E879E"/>
<path d="M775.67 255.029V234.238C775.67 231.261 775.248 229.115 774.419 227.799C773.59 226.483 772.167 225.825 770.165 225.825C768.398 225.825 766.913 226.357 765.693 227.391C764.473 228.441 763.613 229.742 763.081 231.308V255.029H753.777V218.43H761.142L762.221 223.255H762.503C763.597 221.688 765.052 220.325 766.866 219.15C768.68 217.975 771.01 217.396 773.872 217.396C775.639 217.396 777.202 217.646 778.594 218.132C779.97 218.618 781.143 219.432 782.097 220.545C783.051 221.673 783.77 223.193 784.24 225.12C784.709 227.047 784.959 229.428 784.959 232.264V255.029H775.654H775.67Z" fill="#1E879E"/>
<path d="M806.711 244.657C806.711 243.685 806.304 242.902 805.491 242.307C804.678 241.727 803.677 241.179 802.489 240.693C801.3 240.207 799.987 239.706 798.548 239.189C797.109 238.672 795.811 237.967 794.607 237.058C793.419 236.149 792.418 235.006 791.605 233.611C790.792 232.217 790.385 230.431 790.385 228.237C790.385 224.618 791.433 221.861 793.528 219.965C795.624 218.069 798.657 217.113 802.614 217.113C805.335 217.113 807.79 217.411 809.979 217.991C812.169 218.57 813.889 219.228 815.124 219.965L813.044 226.843C811.95 226.404 810.558 225.934 808.9 225.448C807.227 224.963 805.538 224.712 803.818 224.712C801.05 224.712 799.674 225.809 799.674 228.002C799.674 228.88 800.08 229.585 800.894 230.117C801.707 230.65 802.708 231.151 803.896 231.621C805.085 232.091 806.398 232.593 807.837 233.126C809.26 233.658 810.573 234.363 811.778 235.209C812.966 236.071 813.967 237.168 814.78 238.547C815.593 239.91 816 241.664 816 243.811C816 247.524 814.843 250.438 812.528 252.553C810.214 254.684 806.742 255.734 802.113 255.734C799.58 255.734 797.219 255.405 794.998 254.747C792.777 254.089 790.979 253.321 789.603 252.444L792.183 245.346C793.278 245.989 794.732 246.6 796.546 247.211C798.36 247.822 800.221 248.119 802.129 248.119C803.505 248.119 804.615 247.853 805.46 247.32C806.289 246.788 806.711 245.879 806.711 244.61V244.657Z" fill="#1E879E"/>
<path d="M673.538 218.68H677.213V211.849L686.627 209.17V218.68H696.776L695.478 226.671H686.643V240.615C686.643 243.137 686.893 244.939 687.409 246.02C687.909 247.117 688.863 247.649 690.271 247.649C691.24 247.649 692.069 247.555 692.773 247.352C693.477 247.164 694.258 246.866 695.134 246.474L696.807 253.728C695.51 254.355 693.977 254.888 692.241 255.327C690.505 255.765 688.738 255.985 686.956 255.985C683.625 255.985 681.17 255.123 679.606 253.415C678.042 251.692 677.244 248.872 677.244 244.955V226.655H672.24L673.569 218.664L673.538 218.68Z" fill="#1E879E"/>
<path d="M710.804 211.065L706.112 213.776L701.421 211.065V205.628L706.112 202.918L710.804 205.628V211.065Z" fill="#1E879E"/>
<path d="M701.421 216.377L706.112 219.103L710.804 216.377V255.029H701.421V216.377Z" fill="#1E879E"/>
</g>
<defs>
<clipPath id="clip0_5022_5890">
<rect width="718" height="184" fill="white" transform="translate(98 72)"/>
</clipPath>
</defs>
</svg>